<svg width="26" height="26" viewBox="0 0 26 26" fill="none" xmlns="http://www.w3.org/2000/svg">
<path d="M6.1722 4.09522L18.1497 3.36134C20.3547 3.22624 22.2518 4.90423 22.3869 7.10923L22.8761 15.0943C23.0112 17.2993 21.3332 19.1963 19.1282 19.3314L7.1507 20.0653C4.9457 20.2004 3.04866 18.5224 2.91356 16.3174L2.42431 8.33236C2.28921 6.12735 3.9672 4.23032 6.1722 4.09522Z" fill="white"/>
<path d="M4.1716 20.4983C3.75817 20.5236 3.44354 20.8793 3.46887 21.2927C3.49421 21.7062 3.8499 22.0208 4.26334 21.9955L22.2296 20.8947C22.6431 20.8693 22.9577 20.5136 22.9324 20.1002C22.907 19.6868 22.5513 19.3721 22.1379 19.3975L4.1716 20.4983Z" fill="white"/>
</svg>
