<svg width="30" height="30" viewBox="0 0 30 30" fill="none" xmlns="http://www.w3.org/2000/svg">
<path d="M11.1887 11.2067C11.2126 10.8855 11.4924 10.6444 11.8137 10.6683L18.7944 11.1876C19.1157 11.2115 19.3568 11.4913 19.3329 11.8126L18.8135 18.7933C18.7896 19.1146 18.5098 19.3557 18.1885 19.3318L11.2078 18.8125C10.8866 18.7886 10.6455 18.5087 10.6694 18.1875L11.1887 11.2067Z" fill="white"/>
<path fill-rule="evenodd" clip-rule="evenodd" d="M11.2345 2.72845C11.7164 2.7643 12.078 3.18403 12.0421 3.66595L11.9123 5.41113L13.0758 5.49768L13.2056 3.7525C13.2414 3.27058 13.6612 2.90897 14.1431 2.94483C14.625 2.98068 14.9866 3.40041 14.9508 3.88233L14.8209 5.6275L16.5661 5.75733L16.6959 4.01215C16.7318 3.53024 17.1515 3.16863 17.6334 3.20448C18.1154 3.24033 18.477 3.66006 18.4411 4.14198L18.3113 5.88716L19.4747 5.97371L19.6046 4.22853C19.6404 3.74662 20.0602 3.38501 20.5421 3.42086C21.024 3.45671 21.3856 3.87644 21.3498 4.35836L21.2138 6.18521C23.0579 6.67918 24.4225 8.26309 24.6382 10.16L26.465 10.2959C26.9469 10.3317 27.3086 10.7515 27.2727 11.2334C27.2369 11.7153 26.8171 12.0769 26.3352 12.0411L24.59 11.9112L24.5035 13.0747L26.2487 13.2045C26.7306 13.2404 27.0922 13.6601 27.0563 14.142C27.0205 14.6239 26.6007 14.9855 26.1188 14.9497L24.3736 14.8199L24.2438 16.565L25.989 16.6949C26.4709 16.7307 26.8325 17.1504 26.7967 17.6324C26.7608 18.1143 26.3411 18.4759 25.8592 18.44L24.114 18.3102L24.0274 19.4737L25.7726 19.6035C26.2545 19.6393 26.6161 20.0591 26.5803 20.541C26.5444 21.0229 26.1247 21.3845 25.6428 21.3487L23.8159 21.2128C23.322 23.0569 21.7381 24.4214 19.8412 24.6371L19.7053 26.4639C19.6694 26.9459 19.2497 27.3075 18.7678 27.2716C18.2859 27.2358 17.9242 26.816 17.9601 26.3341L18.0899 24.5889L16.9265 24.5024L16.7966 26.2476C16.7608 26.7295 16.3411 27.0911 15.8591 27.0552C15.3772 27.0194 15.0156 26.5997 15.0515 26.1177L15.1813 24.3726L13.4361 24.2427L13.3063 25.9879C13.2704 26.4698 12.8507 26.8314 12.3688 26.7956C11.8869 26.7597 11.5253 26.34 11.5611 25.8581L11.6909 24.1129L10.5275 24.0264L10.3977 25.7715C10.3618 26.2534 9.94208 26.6151 9.46016 26.5792C8.97824 26.5434 8.61663 26.1236 8.65248 25.6417L8.78839 23.8149C6.94429 23.3209 5.57973 21.737 5.36406 19.8401L3.53721 19.7042C3.05529 19.6683 2.69368 19.2486 2.72953 18.7667C2.76538 18.2848 3.18512 17.9232 3.66704 17.959L5.41221 18.0888L5.49876 16.9254L3.75359 16.7956C3.27167 16.7597 2.91006 16.34 2.94591 15.8581C2.98176 15.3761 3.4015 15.0145 3.88341 15.0504L5.62859 15.1802L5.75842 13.435L4.01324 13.3052C3.53132 13.2694 3.16971 12.8496 3.20557 12.3677C3.24142 11.8858 3.66115 11.5242 4.14307 11.56L5.88825 11.6899L5.9748 10.5264L4.22962 10.3966C3.7477 10.3607 3.38609 9.94099 3.42194 9.45907C3.45779 8.97716 3.87753 8.61555 4.35945 8.6514L6.1863 8.7873C6.68026 6.94321 8.26417 5.57864 10.1611 5.36297L10.297 3.53612C10.3328 3.0542 10.7525 2.6926 11.2345 2.72845ZM9.44351 11.0769C9.53912 9.79181 10.6584 8.82752 11.9435 8.92312L18.9242 9.44243C20.2093 9.53803 21.1736 10.6573 21.078 11.9424L20.5587 18.9231C20.4631 20.2083 19.3438 21.1725 18.0587 21.0769L11.078 20.5576C9.79289 20.462 8.8286 19.3427 8.92421 18.0576L9.44351 11.0769Z" fill="white"/>
</svg>
