<svg width="48" height="48" viewBox="0 0 48 48" fill="none" xmlns="http://www.w3.org/2000/svg">
<rect opacity="0.1" width="47.4228" height="48" rx="14" fill="#00C2A8"/>
<path d="M23.5 14.75C28.6086 14.75 32.75 18.8914 32.75 24C32.75 24.6248 32.6874 25.2351 32.5693 25.8252L30.1631 25.0732C30.219 24.7236 30.25 24.3654 30.25 24C30.25 20.2721 27.2279 17.25 23.5 17.25C19.7721 17.25 16.75 20.2721 16.75 24C16.75 27.7279 19.7721 30.75 23.5 30.75C24.3914 30.75 25.2415 30.5747 26.0205 30.2607L26.4531 32.2051L26.5068 32.4062C26.5399 32.5119 26.5809 32.6113 26.626 32.7061C25.6493 33.0568 24.5974 33.25 23.5 33.25C18.3914 33.25 14.25 29.1086 14.25 24C14.25 18.8914 18.3914 14.75 23.5 14.75Z" fill="#00C2A8"/>
<path d="M27.1963 25.874C27.3351 25.8205 27.4937 25.8103 27.6543 25.8604L32.1543 27.2666L32.4307 27.3535C33.0791 27.5562 33.0879 28.4707 32.4434 28.6855L30.3447 29.3848C30.1287 29.4568 29.961 29.6296 29.8955 29.8477L29.2715 31.9287C29.0642 32.6194 28.0744 32.5829 27.918 31.8789L26.7627 26.6807C26.6825 26.3195 26.891 25.9916 27.1963 25.874Z" fill="#00C2A8"/>
<path d="M23.5 18.75C26.3995 18.75 28.75 21.1005 28.75 24C28.75 24.2095 28.7358 24.416 28.7119 24.6191L28.1016 24.4287L27.9512 24.3877C27.7071 24.3292 27.4656 24.3138 27.2334 24.3359C27.2432 24.2252 27.25 24.1133 27.25 24C27.25 21.9289 25.5711 20.25 23.5 20.25C21.4289 20.25 19.75 21.9289 19.75 24C19.75 26.0711 21.4289 27.75 23.5 27.75C24.1745 27.75 24.8066 27.5705 25.3535 27.2588L25.6895 28.7715C25.0229 29.0779 24.2817 29.25 23.5 29.25C20.6005 29.25 18.25 26.8995 18.25 24C18.25 21.1005 20.6005 18.75 23.5 18.75Z" fill="#00C2A8"/>
<path d="M23.5 21.75C24.7426 21.75 25.75 22.7574 25.75 24C25.75 25.2426 24.7426 26.25 23.5 26.25C22.2574 26.25 21.25 25.2426 21.25 24C21.25 22.7574 22.2574 21.75 23.5 21.75Z" fill="#00C2A8"/>
</svg>
