<svg width="29" height="29" viewBox="0 0 29 29" fill="none" xmlns="http://www.w3.org/2000/svg">
<path d="M15.663 13.554C15.6364 13.5508 15.6093 13.5488 15.582 13.548L9.03534 13.3631L9.09298 11.3223C9.10662 10.8392 8.72608 10.4366 8.24303 10.4229C7.75997 10.4093 7.35732 10.7898 7.34368 11.2729L7.28604 13.3137L4.79461 13.2434L4.86871 10.6194C4.88235 10.1364 4.50182 9.7337 4.01876 9.72006C3.53571 9.70642 3.13305 10.087 3.11941 10.57L3.02061 14.0686C3.00696 14.5517 3.3875 14.9543 3.87056 14.968L15.5326 15.2973C15.5599 15.2981 15.587 15.2976 15.6138 15.2959C15.9608 17.4675 17.8117 19.1549 20.0903 19.2192C22.6666 19.292 24.8141 17.2624 24.8869 14.6861C24.9596 12.1098 22.9301 9.96235 20.3538 9.88959C18.0752 9.82524 16.132 11.4055 15.663 13.554Z" fill="white"/>
</svg>
