<svg width="31" height="31" viewBox="0 0 31 31" fill="none" xmlns="http://www.w3.org/2000/svg">
<path fill-rule="evenodd" clip-rule="evenodd" d="M13.3616 3.93251L6.61823 7.16026C5.74092 7.58019 5.2161 8.50009 5.30125 9.46899L5.87467 15.9937C6.23814 20.1294 12.4158 23.7542 14.9847 25.0898C15.672 25.4471 16.4846 25.3951 17.1166 24.9474C19.4394 23.302 24.872 18.9379 24.4697 14.3595L23.8963 7.83482C23.8111 6.86592 23.1339 6.05164 22.1968 5.79117L14.9938 3.78906C14.4503 3.63798 13.8704 3.68894 13.3616 3.93251ZM15.9119 9.31715L11.6426 14.1656C11.5279 14.2958 11.5904 14.5011 11.7581 14.5454L14.5514 15.2835C14.6759 15.3164 14.7503 15.4441 14.7173 15.5687L13.8373 18.8993C13.7744 19.1373 14.0753 19.2979 14.238 19.1131L18.5074 14.2646C18.622 14.1344 18.5596 13.9291 18.3919 13.8848L15.5986 13.1468C15.474 13.1139 15.3997 12.9862 15.4326 12.8616L16.3126 9.53096C16.3755 9.29291 16.0746 9.13236 15.9119 9.31715Z" fill="white"/>
</svg>
